<svg xmlns="http://www.w3.org/2000/svg" xmlns:xlink="http://www.w3.org/1999/xlink" width="1600" zoomAndPan="magnify" viewBox="0 0 1200 675.000002" height="900" preserveAspectRatio="xMidYMid meet" version="1.0"><defs><g/><clipPath id="73db433d18"><path d="M 45.273438 69.039062 L 1112 69.039062 L 1112 606.601562 L 45.273438 606.601562 Z M 45.273438 69.039062 " clip-rule="nonzero"/></clipPath><clipPath id="7fc21789ec"><path d="M 117.453125 69.039062 L 1039.8125 69.039062 C 1079.679688 69.039062 1111.996094 101.355469 1111.996094 141.21875 L 1111.996094 534.421875 C 1111.996094 574.285156 1079.679688 606.601562 1039.8125 606.601562 L 117.453125 606.601562 C 77.589844 606.601562 45.273438 574.285156 45.273438 534.421875 L 45.273438 141.21875 C 45.273438 101.355469 77.589844 69.039062 117.453125 69.039062 Z M 117.453125 69.039062 " clip-rule="nonzero"/></clipPath><clipPath id="5dc7904208"><path d="M 888.160156 77 L 902 77 L 902 92 L 888.160156 92 Z M 888.160156 77 " clip-rule="nonzero"/></clipPath><clipPath id="23e1661eae"><path d="M 941 11.308594 L 955 11.308594 L 955 25 L 941 25 Z M 941 11.308594 " clip-rule="nonzero"/></clipPath><clipPath id="2660f354b9"><path d="M 1141 197 L 1154.71875 197 L 1154.71875 212 L 1141 212 Z M 1141 197 " clip-rule="nonzero"/></clipPath><clipPath id="ecc651fcaf"><path d="M 1088 264 L 1102 264 L 1102 277.914062 L 1088 277.914062 Z M 1088 264 " clip-rule="nonzero"/></clipPath></defs><g clip-path="url(#73db433d18)"><g clip-path="url(#7fc21789ec)"><path fill="#221530" d="M 45.273438 69.039062 L 1112 69.039062 L 1112 606.601562 L 45.273438 606.601562 Z M 45.273438 69.039062 " fill-opacity="1" fill-rule="nonzero"/></g></g><g fill="#ffffff" fill-opacity="1"><g transform="translate(249.068831, 326.045879)"><g><path d="M 19.625 -19.625 L 19.625 -39.25 L 0 -39.25 L 0 -58.875 L 39.25 -58.875 L 39.25 -39.25 L 98.109375 -39.25 L 98.109375 -78.484375 L 19.625 -78.484375 L 19.625 -98.109375 L 0 -98.109375 L 0 -137.359375 L 19.625 -137.359375 L 19.625 -156.984375 L 117.734375 -156.984375 L 117.734375 -137.359375 L 137.359375 -137.359375 L 137.359375 -117.734375 L 98.109375 -117.734375 L 98.109375 -137.359375 L 39.25 -137.359375 L 39.25 -98.109375 L 117.734375 -98.109375 L 117.734375 -78.484375 L 137.359375 -78.484375 L 137.359375 -39.25 L 117.734375 -39.25 L 117.734375 -19.625 Z M 19.625 -19.625 "/></g></g></g><g fill="#ffffff" fill-opacity="1"><g transform="translate(416.419476, 326.045879)"><g><path d="M 0 -19.625 L 0 -117.734375 L 19.625 -117.734375 L 19.625 -137.359375 L 39.25 -137.359375 L 39.25 -156.984375 L 98.109375 -156.984375 L 98.109375 -137.359375 L 117.734375 -137.359375 L 117.734375 -117.734375 L 137.359375 -117.734375 L 137.359375 -19.625 L 98.109375 -19.625 L 98.109375 -58.875 L 39.25 -58.875 L 39.25 -19.625 Z M 39.25 -78.484375 L 98.109375 -78.484375 L 98.109375 -117.734375 L 78.484375 -117.734375 L 78.484375 -137.359375 L 58.875 -137.359375 L 58.875 -117.734375 L 39.25 -117.734375 Z M 39.25 -78.484375 "/></g></g></g><g fill="#ffffff" fill-opacity="1"><g transform="translate(583.770122, 326.045879)"><g><path d="M 58.875 -19.625 L 58.875 -39.25 L 39.25 -39.25 L 39.25 -58.875 L 19.625 -58.875 L 19.625 -78.484375 L 0 -78.484375 L 0 -156.984375 L 39.25 -156.984375 L 39.25 -98.109375 L 58.875 -98.109375 L 58.875 -78.484375 L 78.484375 -78.484375 L 78.484375 -98.109375 L 98.109375 -98.109375 L 98.109375 -156.984375 L 137.359375 -156.984375 L 137.359375 -78.484375 L 117.734375 -78.484375 L 117.734375 -58.875 L 98.109375 -58.875 L 98.109375 -39.25 L 78.484375 -39.25 L 78.484375 -19.625 Z M 58.875 -19.625 "/></g></g></g><g fill="#ffffff" fill-opacity="1"><g transform="translate(751.120767, 326.045879)"><g><path d="M 0 -19.625 L 0 -156.984375 L 137.359375 -156.984375 L 137.359375 -137.359375 L 39.25 -137.359375 L 39.25 -98.109375 L 117.734375 -98.109375 L 117.734375 -78.484375 L 39.25 -78.484375 L 39.25 -39.25 L 137.359375 -39.25 L 137.359375 -19.625 Z M 0 -19.625 "/></g></g></g><g fill="#ffffff" fill-opacity="1"><g transform="translate(165.422883, 506.583761)"><g><path d="M 19.625 -19.625 L 19.625 -39.25 L 0 -39.25 L 0 -58.875 L 39.25 -58.875 L 39.25 -39.25 L 98.109375 -39.25 L 98.109375 -78.484375 L 19.625 -78.484375 L 19.625 -98.109375 L 0 -98.109375 L 0 -137.359375 L 19.625 -137.359375 L 19.625 -156.984375 L 117.734375 -156.984375 L 117.734375 -137.359375 L 137.359375 -137.359375 L 137.359375 -117.734375 L 98.109375 -117.734375 L 98.109375 -137.359375 L 39.25 -137.359375 L 39.25 -98.109375 L 117.734375 -98.109375 L 117.734375 -78.484375 L 137.359375 -78.484375 L 137.359375 -39.25 L 117.734375 -39.25 L 117.734375 -19.625 Z M 19.625 -19.625 "/></g></g></g><g fill="#ffffff" fill-opacity="1"><g transform="translate(332.773528, 506.583761)"><g><path d="M 137.359375 -137.359375 L 137.359375 -58.875 L 117.734375 -58.875 L 117.734375 -39.25 L 98.109375 -39.25 L 98.109375 -19.625 L 19.625 -19.625 L 19.625 -39.25 L 0 -39.25 L 0 -137.359375 L 19.625 -137.359375 L 19.625 -156.984375 L 117.734375 -156.984375 L 117.734375 -137.359375 Z M 98.109375 -137.359375 L 39.25 -137.359375 L 39.25 -39.25 L 78.484375 -39.25 L 78.484375 -58.875 L 58.875 -58.875 L 58.875 -78.484375 L 98.109375 -78.484375 Z M 117.734375 -19.625 L 117.734375 -39.25 L 137.359375 -39.25 L 137.359375 -19.625 Z M 117.734375 -19.625 "/></g></g></g><g fill="#ffffff" fill-opacity="1"><g transform="translate(500.124174, 506.583761)"><g><path d="M 19.625 -19.625 L 19.625 -39.25 L 0 -39.25 L 0 -156.984375 L 39.25 -156.984375 L 39.25 -39.25 L 98.109375 -39.25 L 98.109375 -156.984375 L 137.359375 -156.984375 L 137.359375 -39.25 L 117.734375 -39.25 L 117.734375 -19.625 Z M 19.625 -19.625 "/></g></g></g><g fill="#ffffff" fill-opacity="1"><g transform="translate(667.474819, 506.583761)"><g><path d="M 0 -19.625 L 0 -117.734375 L 19.625 -117.734375 L 19.625 -137.359375 L 39.25 -137.359375 L 39.25 -156.984375 L 98.109375 -156.984375 L 98.109375 -137.359375 L 117.734375 -137.359375 L 117.734375 -117.734375 L 137.359375 -117.734375 L 137.359375 -19.625 L 98.109375 -19.625 L 98.109375 -58.875 L 39.25 -58.875 L 39.25 -19.625 Z M 39.25 -78.484375 L 98.109375 -78.484375 L 98.109375 -117.734375 L 78.484375 -117.734375 L 78.484375 -137.359375 L 58.875 -137.359375 L 58.875 -117.734375 L 39.25 -117.734375 Z M 39.25 -78.484375 "/></g></g></g><g fill="#ffffff" fill-opacity="1"><g transform="translate(834.825464, 506.583761)"><g><path d="M 0 -19.625 L 0 -156.984375 L 98.109375 -156.984375 L 98.109375 -137.359375 L 117.734375 -137.359375 L 117.734375 -117.734375 L 137.359375 -117.734375 L 137.359375 -58.875 L 117.734375 -58.875 L 117.734375 -39.25 L 98.109375 -39.25 L 98.109375 -19.625 Z M 39.25 -39.25 L 78.484375 -39.25 L 78.484375 -58.875 L 98.109375 -58.875 L 98.109375 -117.734375 L 78.484375 -117.734375 L 78.484375 -137.359375 L 39.25 -137.359375 Z M 39.25 -39.25 "/></g></g></g><path fill="#fad480" d="M 968.128906 64.621094 L 928.144531 64.621094 L 928.144531 104.605469 L 968.128906 104.605469 Z M 968.128906 64.621094 " fill-opacity="1" fill-rule="nonzero"/><path fill="#fad480" d="M 1114.734375 184.574219 L 1074.75 184.574219 L 1074.75 224.558594 L 1114.734375 224.558594 Z M 1114.734375 184.574219 " fill-opacity="1" fill-rule="nonzero"/><path fill="#f9e830" d="M 941.472656 37.964844 L 954.800781 37.964844 L 954.800781 77.949219 L 981.457031 77.949219 L 981.457031 91.277344 L 954.800781 91.277344 L 954.800781 131.261719 L 941.472656 131.261719 L 941.472656 91.277344 L 914.816406 91.277344 L 914.816406 77.949219 L 941.472656 77.949219 Z M 941.472656 37.964844 " fill-opacity="1" fill-rule="nonzero"/><g clip-path="url(#5dc7904208)"><path fill="#f9e830" d="M 901.488281 77.949219 L 888.160156 77.949219 L 888.160156 91.277344 L 901.488281 91.277344 Z M 901.488281 77.949219 " fill-opacity="1" fill-rule="nonzero"/></g><path fill="#f9e830" d="M 1008.109375 77.949219 L 994.78125 77.949219 L 994.78125 91.277344 L 1008.109375 91.277344 Z M 1008.109375 77.949219 " fill-opacity="1" fill-rule="nonzero"/><g clip-path="url(#23e1661eae)"><path fill="#f9e830" d="M 954.800781 11.308594 L 941.472656 11.308594 L 941.472656 24.636719 L 954.800781 24.636719 Z M 954.800781 11.308594 " fill-opacity="1" fill-rule="nonzero"/></g><path fill="#f9e830" d="M 954.800781 144.589844 L 941.472656 144.589844 L 941.472656 157.917969 L 954.800781 157.917969 Z M 954.800781 144.589844 " fill-opacity="1" fill-rule="nonzero"/><path fill="#f9e830" d="M 1088.078125 157.917969 L 1101.40625 157.917969 L 1101.40625 197.902344 L 1128.0625 197.902344 L 1128.0625 211.230469 L 1101.40625 211.230469 L 1101.40625 251.210938 L 1088.078125 251.210938 L 1088.078125 211.230469 L 1061.421875 211.230469 L 1061.421875 197.902344 L 1088.078125 197.902344 Z M 1088.078125 157.917969 " fill-opacity="1" fill-rule="nonzero"/><path fill="#f9e830" d="M 1048.09375 197.902344 L 1034.765625 197.902344 L 1034.765625 211.230469 L 1048.09375 211.230469 Z M 1048.09375 197.902344 " fill-opacity="1" fill-rule="nonzero"/><g clip-path="url(#2660f354b9)"><path fill="#f9e830" d="M 1154.71875 197.902344 L 1141.390625 197.902344 L 1141.390625 211.230469 L 1154.71875 211.230469 Z M 1154.71875 197.902344 " fill-opacity="1" fill-rule="nonzero"/></g><path fill="#f9e830" d="M 1101.40625 131.261719 L 1088.078125 131.261719 L 1088.078125 144.589844 L 1101.40625 144.589844 Z M 1101.40625 131.261719 " fill-opacity="1" fill-rule="nonzero"/><g clip-path="url(#ecc651fcaf)"><path fill="#f9e830" d="M 1101.40625 264.539062 L 1088.078125 264.539062 L 1088.078125 277.867188 L 1101.40625 277.867188 Z M 1101.40625 264.539062 " fill-opacity="1" fill-rule="nonzero"/></g></svg>